solid OpenSCAD_Model
  facet normal -1 0 0
    outer loop
      vertex 0 0 0.707107
      vertex 0 19.9 9.40289
      vertex 0 19.9 0.707107
    endloop
  endfacet
  facet normal -1 -0 0
    outer loop
      vertex 0 19.9 9.40289
      vertex 0 0 0.707107
      vertex 0 0 9.40289
    endloop
  endfacet
  facet normal -0 0 1
    outer loop
      vertex 0.707107 19.9 10.11
      vertex 22.0529 0 10.11
      vertex 22.0529 19.9 10.11
    endloop
  endfacet
  facet normal 0 0 1
    outer loop
      vertex 22.0529 0 10.11
      vertex 0.707107 19.9 10.11
      vertex 0.707107 0 10.11
    endloop
  endfacet
  facet normal 1 -0 0
    outer loop
      vertex 22.76 0 9.40289
      vertex 22.76 19.9 0.707107
      vertex 22.76 19.9 9.40289
    endloop
  endfacet
  facet normal 1 0 0
    outer loop
      vertex 22.76 19.9 0.707107
      vertex 22.76 0 9.40289
      vertex 22.76 0 0.707107
    endloop
  endfacet
  facet normal 0 0 -1
    outer loop
      vertex 0.707107 0 0
      vertex 22.0529 19.9 0
      vertex 22.0529 0 0
    endloop
  endfacet
  facet normal -0 0 -1
    outer loop
      vertex 22.0529 19.9 0
      vertex 0.707107 0 0
      vertex 0.707107 19.9 0
    endloop
  endfacet
  facet normal 0 -1 0
    outer loop
      vertex 0.707107 0 0
      vertex 0.707107 0 10.11
      vertex 0 0 9.40289
    endloop
  endfacet
  facet normal 0 -1 0
    outer loop
      vertex 0.707107 0 10.11
      vertex 0.707107 0 0
      vertex 22.0529 0 10.11
    endloop
  endfacet
  facet normal 0 -1 0
    outer loop
      vertex 0.707107 0 0
      vertex 0 0 9.40289
      vertex 0 0 0.707107
    endloop
  endfacet
  facet normal 0 -1 0
    outer loop
      vertex 22.0529 0 0
      vertex 22.0529 0 10.11
      vertex 0.707107 0 0
    endloop
  endfacet
  facet normal 0 -1 0
    outer loop
      vertex 22.0529 0 10.11
      vertex 22.0529 0 0
      vertex 22.76 0 9.40289
    endloop
  endfacet
  facet normal 0 -1 -0
    outer loop
      vertex 22.76 0 9.40289
      vertex 22.0529 0 0
      vertex 22.76 0 0.707107
    endloop
  endfacet
  facet normal 0 1 0
    outer loop
      vertex 22.0529 19.9 0
      vertex 22.0529 19.9 10.11
      vertex 22.76 19.9 9.40289
    endloop
  endfacet
  facet normal 0 1 0
    outer loop
      vertex 22.0529 19.9 10.11
      vertex 22.0529 19.9 0
      vertex 0.707107 19.9 10.11
    endloop
  endfacet
  facet normal 0 1 0
    outer loop
      vertex 22.0529 19.9 0
      vertex 22.76 19.9 9.40289
      vertex 22.76 19.9 0.707107
    endloop
  endfacet
  facet normal 0 1 0
    outer loop
      vertex 0.707107 19.9 0
      vertex 0.707107 19.9 10.11
      vertex 22.0529 19.9 0
    endloop
  endfacet
  facet normal 0 1 0
    outer loop
      vertex 0.707107 19.9 10.11
      vertex 0.707107 19.9 0
      vertex 0 19.9 9.40289
    endloop
  endfacet
  facet normal 0 1 0
    outer loop
      vertex 0 19.9 9.40289
      vertex 0.707107 19.9 0
      vertex 0 19.9 0.707107
    endloop
  endfacet
  facet normal -0.707107 0 -0.707107
    outer loop
      vertex 0.707107 0 0
      vertex 0 19.9 0.707107
      vertex 0.707107 19.9 0
    endloop
  endfacet
  facet normal -0.707107 -0 -0.707107
    outer loop
      vertex 0 19.9 0.707107
      vertex 0.707107 0 0
      vertex 0 0 0.707107
    endloop
  endfacet
  facet normal 0.707107 0 -0.707106
    outer loop
      vertex 22.76 0 0.707107
      vertex 22.0529 19.9 0
      vertex 22.76 19.9 0.707107
    endloop
  endfacet
  facet normal 0.707107 0 -0.707106
    outer loop
      vertex 22.0529 19.9 0
      vertex 22.76 0 0.707107
      vertex 22.0529 0 0
    endloop
  endfacet
  facet normal -0.707107 0 0.707107
    outer loop
      vertex 0 0 9.40289
      vertex 0.707107 19.9 10.11
      vertex 0 19.9 9.40289
    endloop
  endfacet
  facet normal -0.707107 0 0.707107
    outer loop
      vertex 0.707107 19.9 10.11
      vertex 0 0 9.40289
      vertex 0.707107 0 10.11
    endloop
  endfacet
  facet normal 0.707107 -0 0.707106
    outer loop
      vertex 22.0529 0 10.11
      vertex 22.76 19.9 9.40289
      vertex 22.0529 19.9 10.11
    endloop
  endfacet
  facet normal 0.707107 0 0.707106
    outer loop
      vertex 22.76 19.9 9.40289
      vertex 22.0529 0 10.11
      vertex 22.76 0 9.40289
    endloop
  endfacet
endsolid OpenSCAD_Model
