solid OpenSCAD_Model
  facet normal -1 0 0
    outer loop
      vertex 0 0 0.707107
      vertex 0 199 9.35289
      vertex 0 199 0.707107
    endloop
  endfacet
  facet normal -1 -0 0
    outer loop
      vertex 0 199 9.35289
      vertex 0 0 0.707107
      vertex 0 0 9.35289
    endloop
  endfacet
  facet normal -0 0 1
    outer loop
      vertex 0.707107 199 10.06
      vertex 22.1529 0 10.06
      vertex 22.1529 199 10.06
    endloop
  endfacet
  facet normal 0 0 1
    outer loop
      vertex 22.1529 0 10.06
      vertex 0.707107 199 10.06
      vertex 0.707107 0 10.06
    endloop
  endfacet
  facet normal 1 -0 0
    outer loop
      vertex 22.86 0 9.35289
      vertex 22.86 199 0.707107
      vertex 22.86 199 9.35289
    endloop
  endfacet
  facet normal 1 0 0
    outer loop
      vertex 22.86 199 0.707107
      vertex 22.86 0 9.35289
      vertex 22.86 0 0.707107
    endloop
  endfacet
  facet normal 0 0 -1
    outer loop
      vertex 0.707107 0 0
      vertex 22.1529 199 0
      vertex 22.1529 0 0
    endloop
  endfacet
  facet normal -0 0 -1
    outer loop
      vertex 22.1529 199 0
      vertex 0.707107 0 0
      vertex 0.707107 199 0
    endloop
  endfacet
  facet normal 0 -1 0
    outer loop
      vertex 0.707107 0 0
      vertex 0.707107 0 10.06
      vertex 0 0 9.35289
    endloop
  endfacet
  facet normal 0 -1 0
    outer loop
      vertex 0.707107 0 10.06
      vertex 0.707107 0 0
      vertex 22.1529 0 10.06
    endloop
  endfacet
  facet normal 0 -1 0
    outer loop
      vertex 0.707107 0 0
      vertex 0 0 9.35289
      vertex 0 0 0.707107
    endloop
  endfacet
  facet normal 0 -1 0
    outer loop
      vertex 22.1529 0 0
      vertex 22.1529 0 10.06
      vertex 0.707107 0 0
    endloop
  endfacet
  facet normal 0 -1 0
    outer loop
      vertex 22.1529 0 10.06
      vertex 22.1529 0 0
      vertex 22.86 0 9.35289
    endloop
  endfacet
  facet normal 0 -1 -0
    outer loop
      vertex 22.86 0 9.35289
      vertex 22.1529 0 0
      vertex 22.86 0 0.707107
    endloop
  endfacet
  facet normal 0 1 0
    outer loop
      vertex 22.1529 199 0
      vertex 22.1529 199 10.06
      vertex 22.86 199 9.35289
    endloop
  endfacet
  facet normal 0 1 0
    outer loop
      vertex 22.1529 199 10.06
      vertex 22.1529 199 0
      vertex 0.707107 199 10.06
    endloop
  endfacet
  facet normal 0 1 0
    outer loop
      vertex 22.1529 199 0
      vertex 22.86 199 9.35289
      vertex 22.86 199 0.707107
    endloop
  endfacet
  facet normal 0 1 0
    outer loop
      vertex 0.707107 199 0
      vertex 0.707107 199 10.06
      vertex 22.1529 199 0
    endloop
  endfacet
  facet normal 0 1 0
    outer loop
      vertex 0.707107 199 10.06
      vertex 0.707107 199 0
      vertex 0 199 9.35289
    endloop
  endfacet
  facet normal 0 1 0
    outer loop
      vertex 0 199 9.35289
      vertex 0.707107 199 0
      vertex 0 199 0.707107
    endloop
  endfacet
  facet normal -0.707107 0 -0.707107
    outer loop
      vertex 0.707107 0 0
      vertex 0 199 0.707107
      vertex 0.707107 199 0
    endloop
  endfacet
  facet normal -0.707107 -0 -0.707107
    outer loop
      vertex 0 199 0.707107
      vertex 0.707107 0 0
      vertex 0 0 0.707107
    endloop
  endfacet
  facet normal 0.707106 0 -0.707107
    outer loop
      vertex 22.1529 0 0
      vertex 22.86 199 0.707107
      vertex 22.86 0 0.707107
    endloop
  endfacet
  facet normal 0.707106 0 -0.707107
    outer loop
      vertex 22.86 199 0.707107
      vertex 22.1529 0 0
      vertex 22.1529 199 0
    endloop
  endfacet
  facet normal -0.707107 0 0.707107
    outer loop
      vertex 0 0 9.35289
      vertex 0.707107 199 10.06
      vertex 0 199 9.35289
    endloop
  endfacet
  facet normal -0.707107 0 0.707107
    outer loop
      vertex 0.707107 199 10.06
      vertex 0 0 9.35289
      vertex 0.707107 0 10.06
    endloop
  endfacet
  facet normal 0.707106 0 0.707107
    outer loop
      vertex 22.1529 199 10.06
      vertex 22.86 0 9.35289
      vertex 22.86 199 9.35289
    endloop
  endfacet
  facet normal 0.707106 0 0.707107
    outer loop
      vertex 22.86 0 9.35289
      vertex 22.1529 199 10.06
      vertex 22.1529 0 10.06
    endloop
  endfacet
endsolid OpenSCAD_Model
