solid OpenSCAD_Model
  facet normal -1 0 0
    outer loop
      vertex 0 0 0.707107
      vertex 0 20 9.45289
      vertex 0 20 0.707107
    endloop
  endfacet
  facet normal -1 -0 0
    outer loop
      vertex 0 20 9.45289
      vertex 0 0 0.707107
      vertex 0 0 9.45289
    endloop
  endfacet
  facet normal -0 0 1
    outer loop
      vertex 0.707107 20 10.16
      vertex 22.1529 0 10.16
      vertex 22.1529 20 10.16
    endloop
  endfacet
  facet normal 0 0 1
    outer loop
      vertex 22.1529 0 10.16
      vertex 0.707107 20 10.16
      vertex 0.707107 0 10.16
    endloop
  endfacet
  facet normal 1 -0 0
    outer loop
      vertex 22.86 0 9.45289
      vertex 22.86 20 0.707107
      vertex 22.86 20 9.45289
    endloop
  endfacet
  facet normal 1 0 0
    outer loop
      vertex 22.86 20 0.707107
      vertex 22.86 0 9.45289
      vertex 22.86 0 0.707107
    endloop
  endfacet
  facet normal 0 0 -1
    outer loop
      vertex 0.707107 0 0
      vertex 22.1529 20 0
      vertex 22.1529 0 0
    endloop
  endfacet
  facet normal -0 0 -1
    outer loop
      vertex 22.1529 20 0
      vertex 0.707107 0 0
      vertex 0.707107 20 0
    endloop
  endfacet
  facet normal 0 -1 0
    outer loop
      vertex 0.707107 0 0
      vertex 0.707107 0 10.16
      vertex 0 0 9.45289
    endloop
  endfacet
  facet normal 0 -1 0
    outer loop
      vertex 0.707107 0 10.16
      vertex 0.707107 0 0
      vertex 22.1529 0 10.16
    endloop
  endfacet
  facet normal 0 -1 0
    outer loop
      vertex 0.707107 0 0
      vertex 0 0 9.45289
      vertex 0 0 0.707107
    endloop
  endfacet
  facet normal 0 -1 0
    outer loop
      vertex 22.1529 0 0
      vertex 22.1529 0 10.16
      vertex 0.707107 0 0
    endloop
  endfacet
  facet normal 0 -1 0
    outer loop
      vertex 22.1529 0 10.16
      vertex 22.1529 0 0
      vertex 22.86 0 9.45289
    endloop
  endfacet
  facet normal 0 -1 -0
    outer loop
      vertex 22.86 0 9.45289
      vertex 22.1529 0 0
      vertex 22.86 0 0.707107
    endloop
  endfacet
  facet normal 0 1 0
    outer loop
      vertex 22.1529 20 0
      vertex 22.1529 20 10.16
      vertex 22.86 20 9.45289
    endloop
  endfacet
  facet normal 0 1 0
    outer loop
      vertex 22.1529 20 10.16
      vertex 22.1529 20 0
      vertex 0.707107 20 10.16
    endloop
  endfacet
  facet normal 0 1 0
    outer loop
      vertex 22.1529 20 0
      vertex 22.86 20 9.45289
      vertex 22.86 20 0.707107
    endloop
  endfacet
  facet normal 0 1 0
    outer loop
      vertex 0.707107 20 0
      vertex 0.707107 20 10.16
      vertex 22.1529 20 0
    endloop
  endfacet
  facet normal 0 1 0
    outer loop
      vertex 0.707107 20 10.16
      vertex 0.707107 20 0
      vertex 0 20 9.45289
    endloop
  endfacet
  facet normal 0 1 0
    outer loop
      vertex 0 20 9.45289
      vertex 0.707107 20 0
      vertex 0 20 0.707107
    endloop
  endfacet
  facet normal -0.707107 0 -0.707107
    outer loop
      vertex 0.707107 0 0
      vertex 0 20 0.707107
      vertex 0.707107 20 0
    endloop
  endfacet
  facet normal -0.707107 -0 -0.707107
    outer loop
      vertex 0 20 0.707107
      vertex 0.707107 0 0
      vertex 0 0 0.707107
    endloop
  endfacet
  facet normal 0.707106 0 -0.707107
    outer loop
      vertex 22.1529 0 0
      vertex 22.86 20 0.707107
      vertex 22.86 0 0.707107
    endloop
  endfacet
  facet normal 0.707106 0 -0.707107
    outer loop
      vertex 22.86 20 0.707107
      vertex 22.1529 0 0
      vertex 22.1529 20 0
    endloop
  endfacet
  facet normal -0.707107 0 0.707106
    outer loop
      vertex 0 0 9.45289
      vertex 0.707107 20 10.16
      vertex 0 20 9.45289
    endloop
  endfacet
  facet normal -0.707107 0 0.707106
    outer loop
      vertex 0.707107 20 10.16
      vertex 0 0 9.45289
      vertex 0.707107 0 10.16
    endloop
  endfacet
  facet normal 0.707107 -0 0.707107
    outer loop
      vertex 22.1529 0 10.16
      vertex 22.86 20 9.45289
      vertex 22.1529 20 10.16
    endloop
  endfacet
  facet normal 0.707107 0 0.707107
    outer loop
      vertex 22.86 20 9.45289
      vertex 22.1529 0 10.16
      vertex 22.86 0 9.45289
    endloop
  endfacet
endsolid OpenSCAD_Model
