solid Horn:flare
  facet normal 9.548288e-01 0.000000e+00 2.971564e-01
    outer loop
      vertex -1.143000e+01 5.080000e+00 5.100000e+01
      vertex -5.500000e+01 -3.950000e+01 1.910000e+02
      vertex -1.143000e+01 -5.080000e+00 5.100000e+01
    endloop
  endfacet
  facet normal 9.548288e-01 0.000000e+00 2.971564e-01
    outer loop
      vertex -5.500000e+01 3.950000e+01 1.910000e+02
      vertex -5.500000e+01 -3.950000e+01 1.910000e+02
      vertex -1.143000e+01 5.080000e+00 5.100000e+01
    endloop
  endfacet
  facet normal -0.000000e+00 -9.710817e-01 2.387474e-01
    outer loop
      vertex 1.143000e+01 5.080000e+00 5.100000e+01
      vertex -5.500000e+01 3.950000e+01 1.910000e+02
      vertex -1.143000e+01 5.080000e+00 5.100000e+01
    endloop
  endfacet
  facet normal -0.000000e+00 -9.710817e-01 2.387474e-01
    outer loop
      vertex 5.500000e+01 3.950000e+01 1.910000e+02
      vertex -5.500000e+01 3.950000e+01 1.910000e+02
      vertex 1.143000e+01 5.080000e+00 5.100000e+01
    endloop
  endfacet
  facet normal -9.548288e-01 -0.000000e+00 2.971564e-01
    outer loop
      vertex 5.500000e+01 -3.950000e+01 1.910000e+02
      vertex 1.143000e+01 5.080000e+00 5.100000e+01
      vertex 1.143000e+01 -5.080000e+00 5.100000e+01
    endloop
  endfacet
  facet normal -9.548288e-01 -0.000000e+00 2.971564e-01
    outer loop
      vertex 5.500000e+01 3.950000e+01 1.910000e+02
      vertex 1.143000e+01 5.080000e+00 5.100000e+01
      vertex 5.500000e+01 -3.950000e+01 1.910000e+02
    endloop
  endfacet
  facet normal -0.000000e+00 9.710817e-01 2.387474e-01
    outer loop
      vertex -5.500000e+01 -3.950000e+01 1.910000e+02
      vertex 1.143000e+01 -5.080000e+00 5.100000e+01
      vertex -1.143000e+01 -5.080000e+00 5.100000e+01
    endloop
  endfacet
  facet normal -0.000000e+00 9.710817e-01 2.387474e-01
    outer loop
      vertex 5.500000e+01 -3.950000e+01 1.910000e+02
      vertex 1.143000e+01 -5.080000e+00 5.100000e+01
      vertex -5.500000e+01 -3.950000e+01 1.910000e+02
    endloop
  endfacet
  facet normal -1.000000e+00 0.000000e+00 0.000000e+00
    outer loop
      vertex 1.143000e+01 -5.080000e+00 0.000000e+00
      vertex 1.143000e+01 -5.080000e+00 5.100000e+01
      vertex 1.143000e+01 5.080000e+00 5.100000e+01
    endloop
  endfacet
  facet normal -1.000000e+00 0.000000e+00 0.000000e+00
    outer loop
      vertex 1.143000e+01 -5.080000e+00 0.000000e+00
      vertex 1.143000e+01 5.080000e+00 5.100000e+01
      vertex 1.143000e+01 5.080000e+00 0.000000e+00
    endloop
  endfacet
  facet normal 0.000000e+00 -1.000000e+00 0.000000e+00
    outer loop
      vertex 1.143000e+01 5.080000e+00 0.000000e+00
      vertex 1.143000e+01 5.080000e+00 5.100000e+01
      vertex -1.143000e+01 5.080000e+00 5.100000e+01
    endloop
  endfacet
  facet normal 0.000000e+00 -1.000000e+00 0.000000e+00
    outer loop
      vertex 1.143000e+01 5.080000e+00 0.000000e+00
      vertex -1.143000e+01 5.080000e+00 5.100000e+01
      vertex -1.143000e+01 5.080000e+00 0.000000e+00
    endloop
  endfacet
  facet normal 1.000000e+00 0.000000e+00 0.000000e+00
    outer loop
      vertex -1.143000e+01 5.080000e+00 0.000000e+00
      vertex -1.143000e+01 5.080000e+00 5.100000e+01
      vertex -1.143000e+01 -5.080000e+00 5.100000e+01
    endloop
  endfacet
  facet normal 1.000000e+00 0.000000e+00 0.000000e+00
    outer loop
      vertex -1.143000e+01 5.080000e+00 0.000000e+00
      vertex -1.143000e+01 -5.080000e+00 5.100000e+01
      vertex -1.143000e+01 -5.080000e+00 0.000000e+00
    endloop
  endfacet
  facet normal 0.000000e+00 1.000000e+00 0.000000e+00
    outer loop
      vertex -1.143000e+01 -5.080000e+00 0.000000e+00
      vertex -1.143000e+01 -5.080000e+00 5.100000e+01
      vertex 1.143000e+01 -5.080000e+00 5.100000e+01
    endloop
  endfacet
  facet normal 0.000000e+00 1.000000e+00 0.000000e+00
    outer loop
      vertex -1.143000e+01 -5.080000e+00 0.000000e+00
      vertex 1.143000e+01 -5.080000e+00 5.100000e+01
      vertex 1.143000e+01 -5.080000e+00 0.000000e+00
    endloop
  endfacet
  facet normal -0.000000e+00 -1.000000e+00 -0.000000e+00
    outer loop
      vertex -1.289394e+01 -6.530000e+00 5.082437e+01
      vertex 1.288000e+01 -6.530000e+00 5.077958e+01
      vertex 1.289394e+01 -6.530000e+00 5.082437e+01
    endloop
  endfacet
  facet normal -0.000000e+00 -1.000000e+00 -0.000000e+00
    outer loop
      vertex -1.288000e+01 -6.530000e+00 5.077958e+01
      vertex 1.288000e+01 -6.530000e+00 5.077958e+01
      vertex -1.289394e+01 -6.530000e+00 5.082437e+01
    endloop
  endfacet
  facet normal -0.000000e+00 -1.000000e+00 -0.000000e+00
    outer loop
      vertex -1.288000e+01 -6.530000e+00 0.000000e+00
      vertex 1.288000e+01 -6.530000e+00 5.077958e+01
      vertex -1.288000e+01 -6.530000e+00 5.077958e+01
    endloop
  endfacet
  facet normal -0.000000e+00 -1.000000e+00 -0.000000e+00
    outer loop
      vertex 1.288000e+01 -6.530000e+00 0.000000e+00
      vertex 1.288000e+01 -6.530000e+00 5.077958e+01
      vertex -1.288000e+01 -6.530000e+00 0.000000e+00
    endloop
  endfacet
  facet normal -1.000000e+00 -0.000000e+00 -0.000000e+00
    outer loop
      vertex -1.288000e+01 6.530000e+00 0.000000e+00
      vertex -1.288000e+01 -6.530000e+00 0.000000e+00
      vertex -1.288000e+01 -6.530000e+00 5.077958e+01
    endloop
  endfacet
  facet normal -1.000000e+00 -0.000000e+00 -0.000000e+00
    outer loop
      vertex -1.288000e+01 6.530000e+00 0.000000e+00
      vertex -1.288000e+01 -6.530000e+00 5.077958e+01
      vertex -1.288000e+01 6.530000e+00 5.077958e+01
    endloop
  endfacet
  facet normal -0.000000e+00 1.000000e+00 -0.000000e+00
    outer loop
      vertex 1.289394e+01 6.530000e+00 5.082437e+01
      vertex 1.288000e+01 6.530000e+00 5.077958e+01
      vertex -1.289394e+01 6.530000e+00 5.082437e+01
    endloop
  endfacet
  facet normal -0.000000e+00 1.000000e+00 -0.000000e+00
    outer loop
      vertex 1.288000e+01 6.530000e+00 5.077958e+01
      vertex -1.288000e+01 6.530000e+00 5.077958e+01
      vertex -1.289394e+01 6.530000e+00 5.082437e+01
    endloop
  endfacet
  facet normal -0.000000e+00 1.000000e+00 -0.000000e+00
    outer loop
      vertex 1.288000e+01 6.530000e+00 0.000000e+00
      vertex -1.288000e+01 6.530000e+00 5.077958e+01
      vertex 1.288000e+01 6.530000e+00 5.077958e+01
    endloop
  endfacet
  facet normal -0.000000e+00 1.000000e+00 -0.000000e+00
    outer loop
      vertex -1.288000e+01 6.530000e+00 0.000000e+00
      vertex -1.288000e+01 6.530000e+00 5.077958e+01
      vertex 1.288000e+01 6.530000e+00 0.000000e+00
    endloop
  endfacet
  facet normal 1.000000e+00 -0.000000e+00 -0.000000e+00
    outer loop
      vertex 1.288000e+01 -6.530000e+00 0.000000e+00
      vertex 1.288000e+01 6.530000e+00 0.000000e+00
      vertex 1.288000e+01 6.530000e+00 5.077958e+01
    endloop
  endfacet
  facet normal 1.000000e+00 -0.000000e+00 -0.000000e+00
    outer loop
      vertex 1.288000e+01 -6.530000e+00 0.000000e+00
      vertex 1.288000e+01 6.530000e+00 5.077958e+01
      vertex 1.288000e+01 -6.530000e+00 5.077958e+01
    endloop
  endfacet
  facet normal 0.000000e+00 -9.710817e-01 -2.387474e-01
    outer loop
      vertex 5.651860e+01 -4.099318e+01 1.910000e+02
      vertex -5.651860e+01 -4.099318e+01 1.910000e+02
      vertex -1.289394e+01 -6.530000e+00 5.082437e+01
    endloop
  endfacet
  facet normal 0.000000e+00 -9.710817e-01 -2.387474e-01
    outer loop
      vertex 5.651860e+01 -4.099318e+01 1.910000e+02
      vertex -1.289394e+01 -6.530000e+00 5.082437e+01
      vertex 1.289394e+01 -6.530000e+00 5.082437e+01
    endloop
  endfacet
  facet normal 9.548288e-01 -0.000000e+00 -2.971564e-01
    outer loop
      vertex 1.288000e+01 -6.530000e+00 5.077958e+01
      vertex 1.288000e+01 6.530000e+00 5.077958e+01
      vertex 1.289394e+01 6.530000e+00 5.082437e+01
    endloop
  endfacet
  facet normal 9.548288e-01 -0.000000e+00 -2.971564e-01
    outer loop
      vertex 1.288000e+01 -6.530000e+00 5.077958e+01
      vertex 1.289394e+01 6.530000e+00 5.082437e+01
      vertex 1.289394e+01 -6.530000e+00 5.082437e+01
    endloop
  endfacet
  facet normal 9.548288e-01 0.000000e+00 -2.971564e-01
    outer loop
      vertex 1.289394e+01 6.530000e+00 5.082437e+01
      vertex 5.651860e+01 -4.099318e+01 1.910000e+02
      vertex 1.289394e+01 -6.530000e+00 5.082437e+01
    endloop
  endfacet
  facet normal 9.548288e-01 0.000000e+00 -2.971564e-01
    outer loop
      vertex 5.651860e+01 4.099318e+01 1.910000e+02
      vertex 5.651860e+01 -4.099318e+01 1.910000e+02
      vertex 1.289394e+01 6.530000e+00 5.082437e+01
    endloop
  endfacet
  facet normal 0.000000e+00 9.710817e-01 -2.387474e-01
    outer loop
      vertex -5.651860e+01 4.099318e+01 1.910000e+02
      vertex 5.651860e+01 4.099318e+01 1.910000e+02
      vertex 1.289394e+01 6.530000e+00 5.082437e+01
    endloop
  endfacet
  facet normal 0.000000e+00 9.710817e-01 -2.387474e-01
    outer loop
      vertex -5.651860e+01 4.099318e+01 1.910000e+02
      vertex 1.289394e+01 6.530000e+00 5.082437e+01
      vertex -1.289394e+01 6.530000e+00 5.082437e+01
    endloop
  endfacet
  facet normal -9.548288e-01 -0.000000e+00 -2.971564e-01
    outer loop
      vertex -1.288000e+01 -6.530000e+00 5.077958e+01
      vertex -1.289394e+01 -6.530000e+00 5.082437e+01
      vertex -1.288000e+01 6.530000e+00 5.077958e+01
    endloop
  endfacet
  facet normal -9.548288e-01 -0.000000e+00 -2.971564e-01
    outer loop
      vertex -1.289394e+01 -6.530000e+00 5.082437e+01
      vertex -1.289394e+01 6.530000e+00 5.082437e+01
      vertex -1.288000e+01 6.530000e+00 5.077958e+01
    endloop
  endfacet
  facet normal -9.548288e-01 -0.000000e+00 -2.971564e-01
    outer loop
      vertex -5.651860e+01 -4.099318e+01 1.910000e+02
      vertex -1.289394e+01 6.530000e+00 5.082437e+01
      vertex -1.289394e+01 -6.530000e+00 5.082437e+01
    endloop
  endfacet
  facet normal -9.548288e-01 -0.000000e+00 -2.971564e-01
    outer loop
      vertex -5.651860e+01 4.099318e+01 1.910000e+02
      vertex -1.289394e+01 6.530000e+00 5.082437e+01
      vertex -5.651860e+01 -4.099318e+01 1.910000e+02
    endloop
  endfacet
  facet normal -0.000000e+00 -0.000000e+00 -1.000000e+00
    outer loop
      vertex 1.143000e+01 -5.080000e+00 0.000000e+00
      vertex 1.143000e+01 5.080000e+00 0.000000e+00
      vertex 1.288000e+01 -6.530000e+00 0.000000e+00
    endloop
  endfacet
  facet normal -0.000000e+00 -0.000000e+00 -1.000000e+00
    outer loop
      vertex -1.143000e+01 -5.080000e+00 0.000000e+00
      vertex 1.143000e+01 -5.080000e+00 0.000000e+00
      vertex -1.288000e+01 -6.530000e+00 0.000000e+00
    endloop
  endfacet
  facet normal -0.000000e+00 -0.000000e+00 -1.000000e+00
    outer loop
      vertex 1.143000e+01 -5.080000e+00 0.000000e+00
      vertex 1.288000e+01 -6.530000e+00 0.000000e+00
      vertex -1.288000e+01 -6.530000e+00 0.000000e+00
    endloop
  endfacet
  facet normal -0.000000e+00 -0.000000e+00 -1.000000e+00
    outer loop
      vertex 1.143000e+01 5.080000e+00 0.000000e+00
      vertex 1.288000e+01 6.530000e+00 0.000000e+00
      vertex 1.288000e+01 -6.530000e+00 0.000000e+00
    endloop
  endfacet
  facet normal -0.000000e+00 -0.000000e+00 -1.000000e+00
    outer loop
      vertex -1.143000e+01 5.080000e+00 0.000000e+00
      vertex 1.288000e+01 6.530000e+00 0.000000e+00
      vertex 1.143000e+01 5.080000e+00 0.000000e+00
    endloop
  endfacet
  facet normal -0.000000e+00 -0.000000e+00 -1.000000e+00
    outer loop
      vertex -1.288000e+01 6.530000e+00 0.000000e+00
      vertex 1.288000e+01 6.530000e+00 0.000000e+00
      vertex -1.143000e+01 5.080000e+00 0.000000e+00
    endloop
  endfacet
  facet normal -0.000000e+00 -0.000000e+00 -1.000000e+00
    outer loop
      vertex -1.288000e+01 6.530000e+00 0.000000e+00
      vertex -1.143000e+01 5.080000e+00 0.000000e+00
      vertex -1.288000e+01 -6.530000e+00 0.000000e+00
    endloop
  endfacet
  facet normal -0.000000e+00 -0.000000e+00 -1.000000e+00
    outer loop
      vertex -1.143000e+01 5.080000e+00 0.000000e+00
      vertex -1.143000e+01 -5.080000e+00 0.000000e+00
      vertex -1.288000e+01 -6.530000e+00 0.000000e+00
    endloop
  endfacet
  facet normal 0.000000e+00 0.000000e+00 1.000000e+00
    outer loop
      vertex -5.500000e+01 -3.950000e+01 1.910000e+02
      vertex -5.500000e+01 3.950000e+01 1.910000e+02
      vertex -5.651860e+01 -4.099318e+01 1.910000e+02
    endloop
  endfacet
  facet normal 0.000000e+00 0.000000e+00 1.000000e+00
    outer loop
      vertex 5.500000e+01 -3.950000e+01 1.910000e+02
      vertex -5.500000e+01 -3.950000e+01 1.910000e+02
      vertex 5.651860e+01 -4.099318e+01 1.910000e+02
    endloop
  endfacet
  facet normal 0.000000e+00 0.000000e+00 1.000000e+00
    outer loop
      vertex -5.500000e+01 -3.950000e+01 1.910000e+02
      vertex -5.651860e+01 -4.099318e+01 1.910000e+02
      vertex 5.651860e+01 -4.099318e+01 1.910000e+02
    endloop
  endfacet
  facet normal 0.000000e+00 0.000000e+00 1.000000e+00
    outer loop
      vertex -5.500000e+01 3.950000e+01 1.910000e+02
      vertex -5.651860e+01 4.099318e+01 1.910000e+02
      vertex -5.651860e+01 -4.099318e+01 1.910000e+02
    endloop
  endfacet
  facet normal 0.000000e+00 0.000000e+00 1.000000e+00
    outer loop
      vertex 5.500000e+01 3.950000e+01 1.910000e+02
      vertex -5.651860e+01 4.099318e+01 1.910000e+02
      vertex -5.500000e+01 3.950000e+01 1.910000e+02
    endloop
  endfacet
  facet normal 0.000000e+00 0.000000e+00 1.000000e+00
    outer loop
      vertex 5.651860e+01 4.099318e+01 1.910000e+02
      vertex -5.651860e+01 4.099318e+01 1.910000e+02
      vertex 5.500000e+01 3.950000e+01 1.910000e+02
    endloop
  endfacet
  facet normal 0.000000e+00 0.000000e+00 1.000000e+00
    outer loop
      vertex 5.651860e+01 4.099318e+01 1.910000e+02
      vertex 5.500000e+01 3.950000e+01 1.910000e+02
      vertex 5.651860e+01 -4.099318e+01 1.910000e+02
    endloop
  endfacet
  facet normal 0.000000e+00 0.000000e+00 1.000000e+00
    outer loop
      vertex 5.500000e+01 3.950000e+01 1.910000e+02
      vertex 5.500000e+01 -3.950000e+01 1.910000e+02
      vertex 5.651860e+01 -4.099318e+01 1.910000e+02
    endloop
  endfacet
endsolid Horn:flare
