solid Horn:flare
  facet normal 9.548288e-001 0.000000e+000 2.971564e-001
    outer loop
      vertex -1.143000e+001 5.080000e+000 2.600000e+001
      vertex -5.500000e+001 -3.950000e+001 1.660000e+002
      vertex -1.143000e+001 -5.080000e+000 2.600000e+001
    endloop
  endfacet
  facet normal 9.548288e-001 0.000000e+000 2.971564e-001
    outer loop
      vertex -5.500000e+001 3.950000e+001 1.660000e+002
      vertex -5.500000e+001 -3.950000e+001 1.660000e+002
      vertex -1.143000e+001 5.080000e+000 2.600000e+001
    endloop
  endfacet
  facet normal -0.000000e+000 -9.710817e-001 2.387474e-001
    outer loop
      vertex 1.143000e+001 5.080000e+000 2.600000e+001
      vertex -5.500000e+001 3.950000e+001 1.660000e+002
      vertex -1.143000e+001 5.080000e+000 2.600000e+001
    endloop
  endfacet
  facet normal -0.000000e+000 -9.710817e-001 2.387474e-001
    outer loop
      vertex 5.500000e+001 3.950000e+001 1.660000e+002
      vertex -5.500000e+001 3.950000e+001 1.660000e+002
      vertex 1.143000e+001 5.080000e+000 2.600000e+001
    endloop
  endfacet
  facet normal -9.548288e-001 -0.000000e+000 2.971564e-001
    outer loop
      vertex 5.500000e+001 -3.950000e+001 1.660000e+002
      vertex 1.143000e+001 5.080000e+000 2.600000e+001
      vertex 1.143000e+001 -5.080000e+000 2.600000e+001
    endloop
  endfacet
  facet normal -9.548288e-001 -0.000000e+000 2.971564e-001
    outer loop
      vertex 5.500000e+001 3.950000e+001 1.660000e+002
      vertex 1.143000e+001 5.080000e+000 2.600000e+001
      vertex 5.500000e+001 -3.950000e+001 1.660000e+002
    endloop
  endfacet
  facet normal -0.000000e+000 9.710817e-001 2.387474e-001
    outer loop
      vertex -5.500000e+001 -3.950000e+001 1.660000e+002
      vertex 1.143000e+001 -5.080000e+000 2.600000e+001
      vertex -1.143000e+001 -5.080000e+000 2.600000e+001
    endloop
  endfacet
  facet normal -0.000000e+000 9.710817e-001 2.387474e-001
    outer loop
      vertex 5.500000e+001 -3.950000e+001 1.660000e+002
      vertex 1.143000e+001 -5.080000e+000 2.600000e+001
      vertex -5.500000e+001 -3.950000e+001 1.660000e+002
    endloop
  endfacet
  facet normal -1.000000e+000 0.000000e+000 0.000000e+000
    outer loop
      vertex 1.143000e+001 -5.080000e+000 0.000000e+000
      vertex 1.143000e+001 -5.080000e+000 2.600000e+001
      vertex 1.143000e+001 5.080000e+000 2.600000e+001
    endloop
  endfacet
  facet normal -1.000000e+000 0.000000e+000 0.000000e+000
    outer loop
      vertex 1.143000e+001 -5.080000e+000 0.000000e+000
      vertex 1.143000e+001 5.080000e+000 2.600000e+001
      vertex 1.143000e+001 5.080000e+000 0.000000e+000
    endloop
  endfacet
  facet normal 0.000000e+000 -1.000000e+000 0.000000e+000
    outer loop
      vertex 1.143000e+001 5.080000e+000 0.000000e+000
      vertex 1.143000e+001 5.080000e+000 2.600000e+001
      vertex -1.143000e+001 5.080000e+000 2.600000e+001
    endloop
  endfacet
  facet normal 0.000000e+000 -1.000000e+000 0.000000e+000
    outer loop
      vertex 1.143000e+001 5.080000e+000 0.000000e+000
      vertex -1.143000e+001 5.080000e+000 2.600000e+001
      vertex -1.143000e+001 5.080000e+000 0.000000e+000
    endloop
  endfacet
  facet normal 1.000000e+000 0.000000e+000 0.000000e+000
    outer loop
      vertex -1.143000e+001 5.080000e+000 0.000000e+000
      vertex -1.143000e+001 5.080000e+000 2.600000e+001
      vertex -1.143000e+001 -5.080000e+000 2.600000e+001
    endloop
  endfacet
  facet normal 1.000000e+000 0.000000e+000 0.000000e+000
    outer loop
      vertex -1.143000e+001 5.080000e+000 0.000000e+000
      vertex -1.143000e+001 -5.080000e+000 2.600000e+001
      vertex -1.143000e+001 -5.080000e+000 0.000000e+000
    endloop
  endfacet
  facet normal 0.000000e+000 1.000000e+000 0.000000e+000
    outer loop
      vertex -1.143000e+001 -5.080000e+000 0.000000e+000
      vertex -1.143000e+001 -5.080000e+000 2.600000e+001
      vertex 1.143000e+001 -5.080000e+000 2.600000e+001
    endloop
  endfacet
  facet normal 0.000000e+000 1.000000e+000 0.000000e+000
    outer loop
      vertex -1.143000e+001 -5.080000e+000 0.000000e+000
      vertex 1.143000e+001 -5.080000e+000 2.600000e+001
      vertex 1.143000e+001 -5.080000e+000 0.000000e+000
    endloop
  endfacet
  facet normal -0.000000e+000 -1.000000e+000 -0.000000e+000
    outer loop
      vertex -1.289394e+001 -6.530000e+000 2.582437e+001
      vertex 1.288000e+001 -6.530000e+000 2.577958e+001
      vertex 1.289394e+001 -6.530000e+000 2.582437e+001
    endloop
  endfacet
  facet normal -0.000000e+000 -1.000000e+000 -0.000000e+000
    outer loop
      vertex -1.288000e+001 -6.530000e+000 2.577958e+001
      vertex 1.288000e+001 -6.530000e+000 2.577958e+001
      vertex -1.289394e+001 -6.530000e+000 2.582437e+001
    endloop
  endfacet
  facet normal -0.000000e+000 -1.000000e+000 -0.000000e+000
    outer loop
      vertex -1.288000e+001 -6.530000e+000 0.000000e+000
      vertex 1.288000e+001 -6.530000e+000 2.577958e+001
      vertex -1.288000e+001 -6.530000e+000 2.577958e+001
    endloop
  endfacet
  facet normal -0.000000e+000 -1.000000e+000 -0.000000e+000
    outer loop
      vertex 1.288000e+001 -6.530000e+000 0.000000e+000
      vertex 1.288000e+001 -6.530000e+000 2.577958e+001
      vertex -1.288000e+001 -6.530000e+000 0.000000e+000
    endloop
  endfacet
  facet normal -1.000000e+000 -0.000000e+000 -0.000000e+000
    outer loop
      vertex -1.288000e+001 6.530000e+000 0.000000e+000
      vertex -1.288000e+001 -6.530000e+000 0.000000e+000
      vertex -1.288000e+001 -6.530000e+000 2.577958e+001
    endloop
  endfacet
  facet normal -1.000000e+000 -0.000000e+000 -0.000000e+000
    outer loop
      vertex -1.288000e+001 6.530000e+000 0.000000e+000
      vertex -1.288000e+001 -6.530000e+000 2.577958e+001
      vertex -1.288000e+001 6.530000e+000 2.577958e+001
    endloop
  endfacet
  facet normal -0.000000e+000 1.000000e+000 -0.000000e+000
    outer loop
      vertex 1.289394e+001 6.530000e+000 2.582437e+001
      vertex 1.288000e+001 6.530000e+000 2.577958e+001
      vertex -1.289394e+001 6.530000e+000 2.582437e+001
    endloop
  endfacet
  facet normal -0.000000e+000 1.000000e+000 -0.000000e+000
    outer loop
      vertex 1.288000e+001 6.530000e+000 2.577958e+001
      vertex -1.288000e+001 6.530000e+000 2.577958e+001
      vertex -1.289394e+001 6.530000e+000 2.582437e+001
    endloop
  endfacet
  facet normal -0.000000e+000 1.000000e+000 -0.000000e+000
    outer loop
      vertex 1.288000e+001 6.530000e+000 0.000000e+000
      vertex -1.288000e+001 6.530000e+000 2.577958e+001
      vertex 1.288000e+001 6.530000e+000 2.577958e+001
    endloop
  endfacet
  facet normal -0.000000e+000 1.000000e+000 -0.000000e+000
    outer loop
      vertex -1.288000e+001 6.530000e+000 0.000000e+000
      vertex -1.288000e+001 6.530000e+000 2.577958e+001
      vertex 1.288000e+001 6.530000e+000 0.000000e+000
    endloop
  endfacet
  facet normal 1.000000e+000 -0.000000e+000 -0.000000e+000
    outer loop
      vertex 1.288000e+001 -6.530000e+000 0.000000e+000
      vertex 1.288000e+001 6.530000e+000 0.000000e+000
      vertex 1.288000e+001 6.530000e+000 2.577958e+001
    endloop
  endfacet
  facet normal 1.000000e+000 -0.000000e+000 -0.000000e+000
    outer loop
      vertex 1.288000e+001 -6.530000e+000 0.000000e+000
      vertex 1.288000e+001 6.530000e+000 2.577958e+001
      vertex 1.288000e+001 -6.530000e+000 2.577958e+001
    endloop
  endfacet
  facet normal 0.000000e+000 -9.710817e-001 -2.387474e-001
    outer loop
      vertex 5.651860e+001 -4.099318e+001 1.660000e+002
      vertex -5.651860e+001 -4.099318e+001 1.660000e+002
      vertex -1.289394e+001 -6.530000e+000 2.582437e+001
    endloop
  endfacet
  facet normal 0.000000e+000 -9.710817e-001 -2.387474e-001
    outer loop
      vertex 5.651860e+001 -4.099318e+001 1.660000e+002
      vertex -1.289394e+001 -6.530000e+000 2.582437e+001
      vertex 1.289394e+001 -6.530000e+000 2.582437e+001
    endloop
  endfacet
  facet normal 9.548288e-001 -0.000000e+000 -2.971564e-001
    outer loop
      vertex 1.288000e+001 -6.530000e+000 2.577958e+001
      vertex 1.288000e+001 6.530000e+000 2.577958e+001
      vertex 1.289394e+001 6.530000e+000 2.582437e+001
    endloop
  endfacet
  facet normal 9.548288e-001 -0.000000e+000 -2.971564e-001
    outer loop
      vertex 1.288000e+001 -6.530000e+000 2.577958e+001
      vertex 1.289394e+001 6.530000e+000 2.582437e+001
      vertex 1.289394e+001 -6.530000e+000 2.582437e+001
    endloop
  endfacet
  facet normal 9.548288e-001 0.000000e+000 -2.971564e-001
    outer loop
      vertex 1.289394e+001 6.530000e+000 2.582437e+001
      vertex 5.651860e+001 -4.099318e+001 1.660000e+002
      vertex 1.289394e+001 -6.530000e+000 2.582437e+001
    endloop
  endfacet
  facet normal 9.548288e-001 0.000000e+000 -2.971564e-001
    outer loop
      vertex 5.651860e+001 4.099318e+001 1.660000e+002
      vertex 5.651860e+001 -4.099318e+001 1.660000e+002
      vertex 1.289394e+001 6.530000e+000 2.582437e+001
    endloop
  endfacet
  facet normal 0.000000e+000 9.710817e-001 -2.387474e-001
    outer loop
      vertex -5.651860e+001 4.099318e+001 1.660000e+002
      vertex 5.651860e+001 4.099318e+001 1.660000e+002
      vertex 1.289394e+001 6.530000e+000 2.582437e+001
    endloop
  endfacet
  facet normal 0.000000e+000 9.710817e-001 -2.387474e-001
    outer loop
      vertex -5.651860e+001 4.099318e+001 1.660000e+002
      vertex 1.289394e+001 6.530000e+000 2.582437e+001
      vertex -1.289394e+001 6.530000e+000 2.582437e+001
    endloop
  endfacet
  facet normal -9.548288e-001 -0.000000e+000 -2.971564e-001
    outer loop
      vertex -1.288000e+001 -6.530000e+000 2.577958e+001
      vertex -1.289394e+001 -6.530000e+000 2.582437e+001
      vertex -1.288000e+001 6.530000e+000 2.577958e+001
    endloop
  endfacet
  facet normal -9.548288e-001 -0.000000e+000 -2.971564e-001
    outer loop
      vertex -1.289394e+001 -6.530000e+000 2.582437e+001
      vertex -1.289394e+001 6.530000e+000 2.582437e+001
      vertex -1.288000e+001 6.530000e+000 2.577958e+001
    endloop
  endfacet
  facet normal -9.548288e-001 -0.000000e+000 -2.971564e-001
    outer loop
      vertex -5.651860e+001 -4.099318e+001 1.660000e+002
      vertex -1.289394e+001 6.530000e+000 2.582437e+001
      vertex -1.289394e+001 -6.530000e+000 2.582437e+001
    endloop
  endfacet
  facet normal -9.548288e-001 -0.000000e+000 -2.971564e-001
    outer loop
      vertex -5.651860e+001 4.099318e+001 1.660000e+002
      vertex -1.289394e+001 6.530000e+000 2.582437e+001
      vertex -5.651860e+001 -4.099318e+001 1.660000e+002
    endloop
  endfacet
  facet normal -0.000000e+000 -0.000000e+000 -1.000000e+000
    outer loop
      vertex 1.143000e+001 -5.080000e+000 0.000000e+000
      vertex 1.143000e+001 5.080000e+000 0.000000e+000
      vertex 1.288000e+001 -6.530000e+000 0.000000e+000
    endloop
  endfacet
  facet normal -0.000000e+000 -0.000000e+000 -1.000000e+000
    outer loop
      vertex -1.143000e+001 -5.080000e+000 0.000000e+000
      vertex 1.143000e+001 -5.080000e+000 0.000000e+000
      vertex -1.288000e+001 -6.530000e+000 0.000000e+000
    endloop
  endfacet
  facet normal -0.000000e+000 -0.000000e+000 -1.000000e+000
    outer loop
      vertex 1.143000e+001 -5.080000e+000 0.000000e+000
      vertex 1.288000e+001 -6.530000e+000 0.000000e+000
      vertex -1.288000e+001 -6.530000e+000 0.000000e+000
    endloop
  endfacet
  facet normal -0.000000e+000 -0.000000e+000 -1.000000e+000
    outer loop
      vertex 1.143000e+001 5.080000e+000 0.000000e+000
      vertex 1.288000e+001 6.530000e+000 0.000000e+000
      vertex 1.288000e+001 -6.530000e+000 0.000000e+000
    endloop
  endfacet
  facet normal -0.000000e+000 -0.000000e+000 -1.000000e+000
    outer loop
      vertex -1.143000e+001 5.080000e+000 0.000000e+000
      vertex 1.288000e+001 6.530000e+000 0.000000e+000
      vertex 1.143000e+001 5.080000e+000 0.000000e+000
    endloop
  endfacet
  facet normal -0.000000e+000 -0.000000e+000 -1.000000e+000
    outer loop
      vertex -1.288000e+001 6.530000e+000 0.000000e+000
      vertex 1.288000e+001 6.530000e+000 0.000000e+000
      vertex -1.143000e+001 5.080000e+000 0.000000e+000
    endloop
  endfacet
  facet normal -0.000000e+000 -0.000000e+000 -1.000000e+000
    outer loop
      vertex -1.288000e+001 6.530000e+000 0.000000e+000
      vertex -1.143000e+001 5.080000e+000 0.000000e+000
      vertex -1.288000e+001 -6.530000e+000 0.000000e+000
    endloop
  endfacet
  facet normal -0.000000e+000 -0.000000e+000 -1.000000e+000
    outer loop
      vertex -1.143000e+001 5.080000e+000 0.000000e+000
      vertex -1.143000e+001 -5.080000e+000 0.000000e+000
      vertex -1.288000e+001 -6.530000e+000 0.000000e+000
    endloop
  endfacet
  facet normal 0.000000e+000 0.000000e+000 1.000000e+000
    outer loop
      vertex -5.500000e+001 -3.950000e+001 1.660000e+002
      vertex -5.500000e+001 3.950000e+001 1.660000e+002
      vertex -5.651860e+001 -4.099318e+001 1.660000e+002
    endloop
  endfacet
  facet normal 0.000000e+000 0.000000e+000 1.000000e+000
    outer loop
      vertex 5.500000e+001 -3.950000e+001 1.660000e+002
      vertex -5.500000e+001 -3.950000e+001 1.660000e+002
      vertex 5.651860e+001 -4.099318e+001 1.660000e+002
    endloop
  endfacet
  facet normal 0.000000e+000 0.000000e+000 1.000000e+000
    outer loop
      vertex -5.500000e+001 -3.950000e+001 1.660000e+002
      vertex -5.651860e+001 -4.099318e+001 1.660000e+002
      vertex 5.651860e+001 -4.099318e+001 1.660000e+002
    endloop
  endfacet
  facet normal 0.000000e+000 0.000000e+000 1.000000e+000
    outer loop
      vertex -5.500000e+001 3.950000e+001 1.660000e+002
      vertex -5.651860e+001 4.099318e+001 1.660000e+002
      vertex -5.651860e+001 -4.099318e+001 1.660000e+002
    endloop
  endfacet
  facet normal 0.000000e+000 0.000000e+000 1.000000e+000
    outer loop
      vertex 5.500000e+001 3.950000e+001 1.660000e+002
      vertex -5.651860e+001 4.099318e+001 1.660000e+002
      vertex -5.500000e+001 3.950000e+001 1.660000e+002
    endloop
  endfacet
  facet normal 0.000000e+000 0.000000e+000 1.000000e+000
    outer loop
      vertex 5.651860e+001 4.099318e+001 1.660000e+002
      vertex -5.651860e+001 4.099318e+001 1.660000e+002
      vertex 5.500000e+001 3.950000e+001 1.660000e+002
    endloop
  endfacet
  facet normal 0.000000e+000 0.000000e+000 1.000000e+000
    outer loop
      vertex 5.651860e+001 4.099318e+001 1.660000e+002
      vertex 5.500000e+001 3.950000e+001 1.660000e+002
      vertex 5.651860e+001 -4.099318e+001 1.660000e+002
    endloop
  endfacet
  facet normal 0.000000e+000 0.000000e+000 1.000000e+000
    outer loop
      vertex 5.500000e+001 3.950000e+001 1.660000e+002
      vertex 5.500000e+001 -3.950000e+001 1.660000e+002
      vertex 5.651860e+001 -4.099318e+001 1.660000e+002
    endloop
  endfacet
endsolid Horn:flare
